# xmcd CD database file
#
# Track frame offsets:
#	150
#	25065
#	48055
#	76735
#	81750
#	105752
#	128827
#	152917
#	175542
#	199607
#	230225
#
# Disc length: 3221 seconds
#
# Revision: 16
# Processed by: cddbd v1.5.2PL0 Copyright (c) Steve Scherf et al.
# Submitted via: CDex 1.70beta3
#
DISCID=730c930b
DTITLE=柴田　淳 - ため息
DYEAR=2003
DGENRE=Jazz
TTITLE0=夢
TTITLE1=隣の部屋
TTITLE2=片想い
TTITLE3=サーカス ～Piano Solo～
TTITLE4=拝啓、王子様☆
TTITLE5=月光浴
TTITLE6=美しい人
TTITLE7=なにもない場所 -弾き語り-
TTITLE8=ため息
TTITLE9=月の窓
TTITLE10=めじろの心 ～Piano Solo～
EXTD=YEAR: 2003
EXTT0=
EXTT1=
EXTT2=
EXTT3=
EXTT4=
EXTT5=
EXTT6=
EXTT7=
EXTT8=
EXTT9=
EXTT10=
PLAYORDER=
